# xmcd
#
# Track frame offsets: 
#        150
#        22114
#        41668
#        65163
#        93999
#
# Disc length: 1431 seconds
#
# Revision: 0
# Processed by: cddbd v1.5.2PL0 Copyright (c) Steve Scherf et al.
# Submitted via: ExactAudioCopyFreeDBPlugin 1.0
#
DISCID=41059505
DTITLE=Vanessa Peters - Blackout
DYEAR=2006
DGENRE=americana
TTITLE0=Never Been Good
TTITLE1=Afford to Pretend
TTITLE2=Such Good Actors
TTITLE3=Blackout
TTITLE4=The Hero and the Heroine
EXTD=
EXTT0=
EXTT1=
EXTT2=
EXTT3=
EXTT4=
PLAYORDER=
